<?xml version="1.0" encoding="UTF-8" standalone="no"?>
<!-- Created with Inkscape (http://www.inkscape.org/) -->

<svg
   version="1.1"
   id="svg1"
   width="495.1362"
   height="480.06921"
   viewBox="0 0 495.1362 480.06921"
   sodipodi:docname="reos-r-mark-black.svg"
   inkscape:version="1.4.3 (0d15f75, 2025-12-25)"
   xmlns:inkscape="http://www.inkscape.org/namespaces/inkscape"
   xmlns:sodipodi="http://sodipodi.sourceforge.net/DTD/sodipodi-0.dtd"
   xmlns="http://www.w3.org/2000/svg"
   xmlns:svg="http://www.w3.org/2000/svg">
  <sodipodi:namedview
     id="namedview1"
     pagecolor="#ffffff"
     bordercolor="#111111"
     borderopacity="1"
     inkscape:showpageshadow="0"
     inkscape:pageopacity="0"
     inkscape:pagecheckerboard="1"
     inkscape:deskcolor="#d1d1d1"
     showgrid="false"
     inkscape:zoom="2.3475782"
     inkscape:cx="247.70208"
     inkscape:cy="240.03461"
     inkscape:window-width="2560"
     inkscape:window-height="1372"
     inkscape:window-x="-8"
     inkscape:window-y="-8"
     inkscape:window-maximized="1"
     inkscape:current-layer="svg1" />
  <defs
     id="defs1" />
  <g
     id="g1"
     transform="translate(-257.95298,-261.2815)"
     style="fill:#1a1a1a">
    <path
       style="fill:#1a1a1a;fill-opacity:1"
       d="M 404.5755,741.35071 H 257.95306 v -56 -56 l 102.75,0.0612 102.75,0.0612 15.96457,20.18876 15.96457,20.18877 26.92414,34.5 26.92415,34.5 0.98373,1.25 0.98373,1.25 z m 288.1251,0 h -60.38865 l -4.99113,-6.25 -4.99112,-6.25 -19.87924,-25.5 -19.87923,-25.5 -16.13045,-20.5 -16.13045,-20.5 -14.4801,-18.5 -14.4801,-18.5 -14.44854,-18.388 -14.44853,-18.38799 -40.22554,-51.11201 -40.22554,-51.112 -0.0245,-2.75 -0.0245,-2.75 h 79.5 79.5 v -43 -43 h -94 -94 v 89.5 89.5 h -62.5 -62.5 V 405.36976 262.38881 l 2.25,-0.55365 2.25,-0.55366 176.5,0.30993 176.5,0.30994 8,2.15115 8,2.15115 8.24826,3.48016 8.24826,3.48015 8.44304,5.6178 8.44304,5.61781 6.64426,7.22556 6.64426,7.22556 4.43179,7.5 4.43179,7.5 1.93283,5.15437 1.93284,5.15437 1.59027,7.84832 1.59028,7.84832 -0.33933,66.99731 -0.33933,66.99731 -1.7822,6 -1.7822,6 -3.86188,7.75182 -3.86189,7.75182 -4.62344,6.00851 -4.62344,6.00851 -6.73494,5.79658 -6.73493,5.79658 -6.11826,3.71665 -6.11826,3.71665 -7.30599,3.01274 -7.30598,3.01275 -8.0113,2.04546 -8.01131,2.04547 -9.6185,1.16823 -9.61851,1.16823 15.89945,20 15.89944,20 33.41533,42 33.41533,42 26.64594,33.5 26.64594,33.5 1.96277,2.75 1.96276,2.75 z"
       id="path1" />
  </g>
</svg>
